
<svg xmlns="http://www.w3.org/2000/svg" style="display: none;">

    <symbol id="icon-logo">
        <svg xmlns="http://www.w3.org/2000/svg" width="358.635" height="358.635" style="enable-background:new 0 0 358.635 358.635" xml:space="preserve"><path d="M346.975 336.987c-4.154-4.254-12.083-13.256-18.521-25.729-12.082-23.414-13.847-48.069-5.248-73.283 8.869-26.002 13.198-50.95 12.867-74.155l.011-.896C336.083 73.087 262.997 0 173.161 0 83.326.001 10.239 73.088 10.239 162.925c0 89.835 73.086 162.922 162.922 162.922 44.907 0 86.735-17.883 117.779-50.354.958 16.992 5.65 33.58 13.948 49.299 8.421 15.955 18.563 27.145 23.86 32.395a4.996 4.996 0 0 0 3.741 1.443 5.001 5.001 0 0 0 3.599-1.766l11.126-13.152a5.006 5.006 0 0 0-.239-6.725zM103.896 122.934c-4.748 8.225-13.604 13.334-23.113 13.334a26.655 26.655 0 0 1-13.305-3.575c-6.167-3.561-10.579-9.31-12.421-16.188-1.843-6.878-.896-14.063 2.665-20.231C62.47 88.049 71.326 82.94 80.835 82.94c4.651 0 9.252 1.236 13.303 3.574 12.731 7.354 17.109 23.693 9.758 36.42zm-48.84 86.409c1.843-6.878 6.254-12.626 12.42-16.188a26.676 26.676 0 0 1 13.307-3.575c9.507 0 18.364 5.108 23.113 13.334 7.351 12.729 2.973 29.065-9.756 36.419a26.658 26.658 0 0 1-13.306 3.576c-9.508 0-18.364-5.109-23.113-13.336-3.561-6.166-4.507-13.351-2.665-20.23zm118.105 33.56c7.122 0 13.816 2.771 18.853 7.81 5.034 5.035 7.808 11.729 7.808 18.854 0 14.7-11.959 26.659-26.659 26.659-14.699 0-26.658-11.959-26.658-26.659-.001-14.702 11.957-26.664 26.656-26.664zm0-159.959c-14.699 0-26.658-11.959-26.658-26.659 0-14.701 11.959-26.661 26.658-26.661 14.7 0 26.659 11.96 26.659 26.661 0 14.7-11.959 26.659-26.659 26.659zm0 45.176c19.192 0 34.807 15.613 34.807 34.806 0 19.19-15.613 34.804-34.807 34.804-19.191 0-34.804-15.612-34.804-34.804.001-19.193 15.613-34.806 34.804-34.806zm105.687 4.572a26.666 26.666 0 0 1-13.309 3.576c-9.508 0-18.364-5.109-23.114-13.335-7.352-12.728-2.974-29.064 9.757-36.418a26.647 26.647 0 0 1 13.306-3.576c9.509 0 18.366 5.109 23.115 13.334 7.35 12.732 2.973 29.068-9.755 36.419zm-36.422 70.223c4.749-8.225 13.604-13.334 23.112-13.334 4.653 0 9.254 1.236 13.309 3.576 6.152 3.554 10.56 9.304 12.403 16.188 1.848 6.89.905 14.072-2.647 20.229-4.749 8.226-13.606 13.334-23.115 13.334-4.65 0-9.252-1.235-13.303-3.573-12.731-7.354-17.108-23.691-9.759-36.42z"/></svg>
    </symbol>

    <symbol id="icon-github">
        <svg width="20" height="20" xmlns="http://www.w3.org/2000/svg"><path d="M13.18 11.309c-.718 0-1.3.807-1.3 1.799 0 .994.582 1.801 1.3 1.801s1.3-.807 1.3-1.801c-.001-.992-.582-1.799-1.3-1.799zm4.526-4.683c.149-.365.155-2.439-.635-4.426 0 0-1.811.199-4.551 2.08-.575-.16-1.548-.238-2.519-.238-.973 0-1.945.078-2.52.238C4.74 2.399 2.929 2.2 2.929 2.2c-.789 1.987-.781 4.061-.634 4.426C1.367 7.634.8 8.845.8 10.497c0 7.186 5.963 7.301 7.467 7.301l1.734.002 1.732-.002c1.506 0 7.467-.115 7.467-7.301 0-1.652-.566-2.863-1.494-3.871zm-7.678 10.289h-.056c-3.771 0-6.709-.449-6.709-4.115 0-.879.31-1.693 1.047-2.369C5.537 9.304 7.615 9.9 9.972 9.9h.056c2.357 0 4.436-.596 5.664.531.735.676 1.045 1.49 1.045 2.369 0 3.666-2.937 4.115-6.709 4.115zm-3.207-5.606c-.718 0-1.3.807-1.3 1.799 0 .994.582 1.801 1.3 1.801.719 0 1.301-.807 1.301-1.801 0-.992-.582-1.799-1.301-1.799z"/></svg>
    </symbol>

    <symbol id="icon-telegram">
        <svg xmlns="http://www.w3.org/2000/svg" viewBox="0 0 30 30" width="60" height="60"><path fill="none" stroke-miterlimit="10" stroke-width="2" d="M24.634 5.128c-.674.271-14.887 6.392-19.782 8.498-.286.123-.852.31-.852.92 0 .49.368.732.792.905L9.803 17.5s1.407 4.306 1.699 5.25c.292.945.527.967.527.967.065.029.128.04.187.04.188 0 .333-.112.333-.112l3.672-3.176 4.308 4.075s.428.456.901.456c.576 0 .993-.587 1.066-.969.101-.534 3.444-17.694 3.444-17.694.303-1.383-.596-1.496-1.306-1.209z"/><path d="M20.866 10c-.153 0-.359.149-.469.219-1.575 1.004-9.469 5.597-11.634 6.855l1.04.426s1.407 4.306 1.699 5.25c.292.945.527.967.527.967.065.029.128.04.187.04.048 0 .081-.017.121-.029l1.439-5.76s6.556-6.785 6.951-7.18c.318-.316.384-.428.384-.537 0-.146-.075-.251-.245-.251z"/></svg>
    </symbol>

    <symbol id="icon-mail">
        <svg xmlns="http://www.w3.org/2000/svg" viewBox="0 0 474 474" style="enable-background:new 0 0 474 474" xml:space="preserve"><path d="M437.5 59.3h-401C16.4 59.3 0 75.7 0 95.8v282.4c0 20.1 16.4 36.5 36.5 36.5h401c20.1 0 36.5-16.4 36.5-36.5V95.8c0-20.1-16.4-36.5-36.5-36.5zm-5.3 27L239.5 251.1 46.8 86.3h385.4zM447 378.2c0 5.2-4.3 9.5-9.5 9.5h-401c-5.2 0-9.5-4.3-9.5-9.5V104.9l203.7 174.2c.1.1.3.2.4.3.1.1.3.2.4.3.3.2.5.4.8.5.1.1.2.1.3.2l1.2.6c.1 0 .2.1.3.1.3.1.6.3 1 .4.1 0 .3.1.4.1.3.1.6.2.9.2.1 0 .3.1.4.1.3.1.7.1 1 .2h.3c.4 0 .9.1 1.3.1s.9 0 1.3-.1h.3c.3 0 .7-.1 1-.2.1 0 .3-.1.4-.1.3-.1.6-.2.9-.2.1 0 .3-.1.4-.1.3-.1.6-.2 1-.4.1 0 .2-.1.3-.1l1.2-.6c.1-.1.2-.1.3-.2.3-.2.5-.3.8-.5.1-.1.3-.2.4-.3.1-.1.3-.2.4-.3L447 109.2v269z"/></svg>
    </symbol>

    <symbol id="icon-bin">
        <svg xmlns="http://www.w3.org/2000/svg" width="446.853" height="446.853" style="enable-background:new 0 0 446.853 446.853" xml:space="preserve"><path d="M444.274 93.36a14.332 14.332 0 0 0-11.145-6.123L155.942 75.289c-7.953-.348-14.599 5.792-14.939 13.708-.338 7.913 5.792 14.599 13.707 14.939l258.421 11.14L362.32 273.61H136.205L95.354 51.179a14.336 14.336 0 0 0-8.861-10.753L19.586 14.141c-7.374-2.887-15.695.735-18.591 8.1-2.891 7.369.73 15.695 8.1 18.591l59.491 23.371 41.572 226.335a14.341 14.341 0 0 0 14.104 11.746h6.896l-15.747 43.74a11.927 11.927 0 0 0 1.468 10.916 11.947 11.947 0 0 0 9.772 5.078h11.045c-6.844 7.617-11.045 17.646-11.045 28.675 0 23.718 19.299 43.012 43.012 43.012s43.012-19.294 43.012-43.012c0-11.028-4.201-21.058-11.044-28.675h93.777c-6.847 7.617-11.047 17.646-11.047 28.675 0 23.718 19.294 43.012 43.012 43.012 23.719 0 43.012-19.294 43.012-43.012 0-11.028-4.2-21.058-11.042-28.675h13.432c6.6 0 11.948-5.349 11.948-11.947 0-6.6-5.349-11.948-11.948-11.948H143.651l12.902-35.843h216.221a14.332 14.332 0 0 0 13.651-9.96l59.739-186.387a14.306 14.306 0 0 0-1.89-12.573zm-274.61 316.454c-10.543 0-19.117-8.573-19.117-19.116s8.574-19.117 19.117-19.117 19.116 8.574 19.116 19.117-8.573 19.116-19.116 19.116zm157.709 0c-10.543 0-19.116-8.573-19.116-19.116s8.573-19.117 19.116-19.117 19.116 8.574 19.116 19.117-8.573 19.116-19.116 19.116z"/></svg>
    </symbol>

    <symbol id="icon-login">
        <svg class="svg-icon" style="width:1em;height:1em;vertical-align:middle;overflow:hidden" viewBox="0 0 1024 1024" xmlns="http://www.w3.org/2000/svg"><path d="M209.455 721.455V1024h744.727V0H209.455v302.545h93.09V93.091h558.546v837.818H302.545V721.455z"/><path d="M69.818 558.545h535.273L488.727 744.727h93.091L721.455 512 581.818 279.273h-93.09L605.09 465.455H69.818z"/></svg>
    </symbol>
    
</svg>